<svg xmlns="http://www.w3.org/2000/svg" width="237" height="212" fill="none" viewBox="0 0 237 212"><path fill="#263238" d="M227.035 201.704c0 .07-50.73.13-113.298.13-62.568 0-113.309-.06-113.309-.13s50.72-.13 113.334-.13c62.613 0 113.273.055 113.273.13ZM219.778 185.348l-62.972-.04a13.72 13.72 0 0 1-13.71-13.72l.03-157.873a13.728 13.728 0 0 1 4.022-9.7A13.723 13.723 0 0 1 156.851 0l62.972.04a13.717 13.717 0 0 1 12.68 8.468 13.716 13.716 0 0 1 1.045 5.252l-.03 157.873a13.712 13.712 0 0 1-13.74 13.715Z"/><path fill="#fff" d="M219.759 5.621h-12.212a3.032 3.032 0 0 0-2.123.934 3.027 3.027 0 0 0-.838 2.162v2.197c.009.398-.061.793-.206 1.165a3.018 3.018 0 0 1-2.76 1.93h-23.795a3.034 3.034 0 0 1-2.97-3.095V8.697a3.037 3.037 0 0 0-2.966-3.1h-14.978a9.603 9.603 0 0 0-8.879 5.928 9.607 9.607 0 0 0-.732 3.677l-.03 154.094a9.612 9.612 0 0 0 9.601 9.611l62.848.035a9.611 9.611 0 0 0 9.611-9.606l.03-154.094a9.613 9.613 0 0 0-9.601-9.62Z"/><path fill="#EBEBEB" d="M219.758 5.621h-12.212a3.023 3.023 0 0 0-2.96 3.096v2.197a3.03 3.03 0 0 1-2.966 3.095h-23.795a3.036 3.036 0 0 1-2.971-3.095V8.697a3.033 3.033 0 0 0-2.965-3.1h-14.978a9.608 9.608 0 0 0-9.611 9.605v15.133h82.054V15.232a9.611 9.611 0 0 0-9.596-9.61Z"/><path fill="#263238" d="M220.602 17.744a1.057 1.057 0 0 1-.653.986 1.064 1.064 0 1 1 .653-.986ZM220.602 20.614a1.062 1.062 0 0 1-2.106.208 1.068 1.068 0 0 1 .452-1.092 1.062 1.062 0 0 1 1.344.131 1.056 1.056 0 0 1 .31.753ZM220.602 23.48a1.057 1.057 0 0 1-.653.987 1.064 1.064 0 1 1 .653-.986Z"/><path fill="#E0E0E0" d="M222.774 39.222a1.437 1.437 0 1 0 0-2.874 1.437 1.437 0 0 0 0 2.874ZM220.976 40.021a1.437 1.437 0 1 1-2.875.001 1.437 1.437 0 0 1 2.875 0ZM224.211 42.078a1.438 1.438 0 1 1-2.876.002 1.438 1.438 0 0 1 2.876-.002Z"/><path fill="#E0E0E0" d="m222.364 42.288-3.28-2.272 3.54-2.446.299.43-2.925 2.021 2.661 1.843-.295.424Z"/><path fill="#EBEBEB" d="M208.989 33.78h-48.998a6.271 6.271 0 0 0-6.271 6.271v.57a6.271 6.271 0 0 0 6.271 6.27h48.998a6.271 6.271 0 0 0 6.271-6.27v-.57a6.271 6.271 0 0 0-6.271-6.27Z"/><path fill="#263238" d="M163.461 40.37v1.424h-.719v-1.308c0-.405-.185-.59-.499-.59-.315 0-.595.215-.595.67v1.228h-.719v-3.42h.724v1.203a1.087 1.087 0 0 1 .789-.3 1 1 0 0 1 1.019 1.094ZM165.713 41.664a.996.996 0 0 1-.584.16.816.816 0 0 1-.928-.894v-.999h-.385v-.559h.385v-.619h.719v.62h.619v.553h-.619v.999a.284.284 0 0 0 .182.31.502.502 0 0 0 .422-.071l.189.5ZM167.645 41.664a.998.998 0 0 1-.584.16.816.816 0 0 1-.883-.53.824.824 0 0 1-.046-.364v-.999h-.384v-.559h.399v-.619h.719v.62h.619v.553h-.619v.999a.293.293 0 0 0 .182.31.292.292 0 0 0 .128.02.497.497 0 0 0 .294-.09l.175.499ZM170.78 40.546a1.207 1.207 0 0 1-1.238 1.278 1 1 0 0 1-.749-.3v1.158h-.719v-3.38h.689v.285a.971.971 0 0 1 .779-.325 1.208 1.208 0 0 1 1.238 1.284Zm-.733 0a.641.641 0 0 0-.426-.55.633.633 0 1 0-.204 1.234.63.63 0 0 0 .468-.202.63.63 0 0 0 .162-.482ZM171.02 41.554l.239-.5c.261.159.559.243.864.245.329 0 .454-.09.454-.23 0-.404-1.498 0-1.498-.998 0-.47.425-.804 1.149-.804.331-.006.658.07.953.22l-.239.5a1.457 1.457 0 0 0-.714-.18c-.325 0-.465.1-.465.23 0 .424 1.498 0 1.498.998 0 .459-.429.789-1.173.789a2.093 2.093 0 0 1-1.068-.27ZM173.536 39.712a.453.453 0 0 1 .447-.402.451.451 0 0 1 .447.402.444.444 0 0 1-.447.497.452.452 0 0 1-.427-.311c-.02-.06-.026-.124-.02-.186Zm0 1.657a.453.453 0 0 1 .447-.402.452.452 0 0 1 .447.402.444.444 0 0 1-.447.497.45.45 0 0 1-.447-.497ZM176.203 37.9h.639l-1.523 4.348h-.639l1.523-4.349ZM177.676 37.9h.639l-1.523 4.348h-.659l1.543-4.349ZM182.294 39.302l-.899 2.496h-.694l-.574-1.557-.579 1.542h-.694l-.894-2.496h.679l.584 1.678.609-1.678h.609l.594 1.678.605-1.678.654.015Z"/><path fill="#263238" d="m186.562 39.302-.904 2.496h-.689l-.559-1.542-.579 1.542h-.709l-.899-2.496h.679l.589 1.678.629-1.678h.609l.59 1.678.604-1.678h.639Z"/><path fill="#263238" d="m190.826 39.302-.899 2.496h-.694l-.559-1.542-.559 1.527h-.694l-.899-2.496h.679l.589 1.678.609-1.678h.61l.589 1.678.604-1.678.624.015ZM190.84 41.37a.453.453 0 0 1 .447-.402.451.451 0 0 1 .447.401.45.45 0 0 1-.874.186.45.45 0 0 1-.02-.185ZM192.049 41.37a.453.453 0 0 1 .447-.402.451.451 0 0 1 .447.401.45.45 0 0 1-.874.186.434.434 0 0 1-.02-.185ZM193.258 41.37a.45.45 0 1 1 .9-.002.45.45 0 0 1-.9.001ZM207.033 22.002c0 .075-7.809.13-17.44.13s-17.454-.055-17.454-.13c0-.075 7.823-.104 17.474-.104s17.42.035 17.42.104Z"/><path fill="#E0E0E0" d="M220.742 151.397c0 .075-14.289.13-31.908.13s-31.913-.055-31.913-.13c0-.075 14.284-.129 31.913-.129 17.629 0 31.908.059 31.908.129ZM220.742 145.925c0 .07-14.289.13-31.908.13s-31.913-.06-31.913-.13 14.284-.13 31.913-.13c17.629 0 31.908.055 31.908.13ZM220.742 140.448c0 .07-14.289.13-31.908.13s-31.913-.06-31.913-.13c0-.069 14.284-.129 31.913-.129 17.629 0 31.908.055 31.908.129ZM220.742 134.972c0 .07-14.289.13-31.908.13s-31.913-.06-31.913-.13 14.284-.13 31.913-.13c17.629 0 31.908.06 31.908.13ZM220.742 129.494c0 .075-14.289.13-31.908.13s-31.913-.055-31.913-.13c0-.075 14.284-.129 31.913-.129 17.629 0 31.908.059 31.908.129ZM220.742 124.018c0 .074-14.289.129-31.908.129s-31.913-.055-31.913-.129c0-.075 14.284-.13 31.913-.13 17.629 0 31.908.06 31.908.13ZM220.742 118.546c0 .069-14.289.129-31.908.129s-31.913-.06-31.913-.129c0-.07 14.284-.13 31.913-.13 17.629 0 31.908.055 31.908.13ZM220.742 113.069c0 .07-14.289.13-31.908.13s-31.913-.06-31.913-.13 14.284-.13 31.913-.13c17.629 0 31.908.055 31.908.13ZM220.742 107.592c0 .07-14.289.13-31.908.13s-31.913-.06-31.913-.13 14.284-.13 31.913-.13c17.629 0 31.908.06 31.908.13ZM220.742 102.115c0 .075-14.289.129-31.908.129s-31.913-.054-31.913-.129c0-.075 14.284-.13 31.913-.13 17.629 0 31.908.06 31.908.13ZM220.742 96.638c0 .075-14.289.13-31.908.13s-31.913-.055-31.913-.13c0-.075 14.284-.13 31.913-.13 17.629 0 31.908.06 31.908.13ZM220.742 91.166c0 .07-14.289.13-31.908.13s-31.913-.06-31.913-.13 14.284-.13 31.913-.13c17.629 0 31.908.055 31.908.13ZM220.742 85.69c0 .069-14.289.129-31.908.129s-31.913-.06-31.913-.13 14.284-.13 31.913-.13c17.629 0 31.908.055 31.908.13ZM220.742 80.212c0 .07-14.289.13-31.908.13s-31.913-.06-31.913-.13 14.284-.13 31.913-.13c17.629 0 31.908.06 31.908.13ZM220.742 74.735c0 .075-14.289.13-31.908.13s-31.913-.055-31.913-.13c0-.075 14.284-.13 31.913-.13 17.629 0 31.908.06 31.908.13ZM220.742 69.258c0 .075-14.289.13-31.908.13s-31.913-.055-31.913-.13c0-.075 14.284-.13 31.913-.13 17.629 0 31.908.06 31.908.13ZM220.742 63.786c0 .07-14.289.13-31.908.13s-31.913-.06-31.913-.13 14.284-.13 31.913-.13c17.629 0 31.908.055 31.908.13ZM220.742 58.31c0 .07-14.289.13-31.908.13s-31.913-.06-31.913-.13 14.284-.13 31.913-.13c17.629 0 31.908.054 31.908.13ZM220.742 52.852c0 .07-14.289.13-31.908.13s-31.913-.06-31.913-.13 14.284-.13 31.913-.13c17.629 0 31.908.04 31.908.13ZM220.742 156.875c0 .075-14.289.129-31.908.129s-31.913-.054-31.913-.129c0-.075 14.284-.13 31.913-.13 17.629 0 31.908.06 31.908.13ZM220.742 162.351c0 .07-14.289.13-31.908.13s-31.913-.06-31.913-.13c0-.069 14.284-.129 31.913-.129 17.629 0 31.908.06 31.908.129ZM220.742 167.828c0 .07-14.289.13-31.908.13s-31.913-.06-31.913-.13 14.284-.13 31.913-.13c17.629 0 31.908.055 31.908.13Z"/><path fill="#fff" d="M232.505 50.836h-73.362a3.86 3.86 0 0 0-3.86 3.859v82.733a3.86 3.86 0 0 0 3.86 3.86h73.362a3.86 3.86 0 0 0 3.859-3.86V54.695a3.86 3.86 0 0 0-3.859-3.86Z"/><path fill="#263238" d="M232.5 141.288h.219a3.865 3.865 0 0 0 2.751-1.418c.39-.488.659-1.061.784-1.673.081-.747.104-1.5.07-2.251v-5.657c0-8.518-.025-20.835-.045-36.052V55.473a6.331 6.331 0 0 0-.14-1.752 3.572 3.572 0 0 0-.833-1.497 3.701 3.701 0 0 0-1.443-.999 4.433 4.433 0 0 0-1.763-.245h-72.947a3.755 3.755 0 0 0-3.37 2.117 4.18 4.18 0 0 0-.37 2.047V137.588a3.726 3.726 0 0 0 2.966 3.495 7.78 7.78 0 0 0 1.642.085h23.216l36.047.04 9.801.025h3.415-3.415l-9.801.025-36.047.045h-23.226a8.813 8.813 0 0 1-1.687-.085 3.974 3.974 0 0 1-3.146-3.72V55.129a4.436 4.436 0 0 1 .395-2.157 4.024 4.024 0 0 1 3.585-2.266H232.05c.626-.04 1.253.05 1.843.264a3.827 3.827 0 0 1 1.532 1.049 3.88 3.88 0 0 1 .889 1.613 6.57 6.57 0 0 1 .145 1.812v38.763c0 15.218-.03 27.534-.04 36.052v5.657c.029.756.001 1.514-.085 2.266-.132.62-.409 1.2-.809 1.693a3.834 3.834 0 0 1-2.146 1.313 3.589 3.589 0 0 1-.645.08l-.234.02Z"/><path fill="#263238" d="M236.454 53.616a4.1 4.1 0 0 0-2.497-2.746 4.617 4.617 0 0 0-1.892-.274h-72.893a4.107 4.107 0 0 0-3.714 2.331 4.423 4.423 0 0 0-.41 2.217v82.469c.03.608.19 1.202.47 1.742a4.118 4.118 0 0 0 2.775 2.092c.329.066.664.096.999.09H159.991l59.273-.06 9.8-.025h3.635a3.9 3.9 0 0 0 2.886-1.443 4.162 4.162 0 0 0 .839-1.747 8.317 8.317 0 0 0 .08-1.553v-.734l.049-41.709V55.203a5.531 5.531 0 0 0-.099-1.587Zm-81.171 39.787V55.129a4.27 4.27 0 0 1 .384-2.107 3.867 3.867 0 0 1 .005-.005 4.193 4.193 0 0 0-.384 2.102l-.005 38.284Zm80.851 44.754a3.836 3.836 0 0 1-.759 1.618 3.742 3.742 0 0 1-2.042 1.278 3.87 3.87 0 0 1-.624.095h-1.073l-12.352-.04-36.047-.04h-23.67a5.078 5.078 0 0 1-1.174-.08 3.611 3.611 0 0 1-2.865-3.395V55.139a3.937 3.937 0 0 1 .359-1.997 3.603 3.603 0 0 1 3.22-2.047h72.973a4.179 4.179 0 0 1 1.713.24 3.636 3.636 0 0 1 2.201 2.421c.117.478.162.971.135 1.463v37.76l.045 37.31v6.395c.033.491.019.984-.04 1.473Z"/><path fill="#263238" d="M165.993 114.497h.709v2.496h1.533v.579h-2.242v-3.075ZM168.503 114.497a.378.378 0 0 1 .036-.155.386.386 0 0 1 .389-.225.383.383 0 0 1 .387.213.378.378 0 0 1 .037.152c0 .112-.045.22-.124.3a.428.428 0 0 1-.601 0 .428.428 0 0 1-.124-.3v.015Zm.085.708h.679v2.352h-.679v-2.352ZM172.308 116.209v1.348h-.669v-1.243c0-.38-.175-.554-.499-.554-.325 0-.565.199-.565.634v1.163h-.679v-2.351h.65v.274a1.043 1.043 0 0 1 .778-.309.908.908 0 0 1 .741.284.918.918 0 0 1 .243.754ZM173.941 116.634l-.33.324v.599h-.684v-3.245h.709v1.837l.999-.943h.809l-.999.998 1.069 1.358h-.829l-.744-.928ZM164.51 61.794l.23-.5c.286.2.625.309.974.31.399 0 .564-.135.564-.314 0-.554-1.708-.175-1.708-1.268 0-.5.4-.92 1.239-.92.359-.006.712.086 1.023.266l-.21.499a1.682 1.682 0 0 0-.818-.23c-.405 0-.56.15-.56.335 0 .544 1.713.17 1.713 1.253 0 .499-.409.908-1.248.908a2.07 2.07 0 0 1-1.199-.34ZM169.687 60.79v1.294h-.654V60.89c0-.364-.17-.534-.459-.534-.29 0-.544.195-.544.61v1.118h-.655v-3.12h.655v1.093a.999.999 0 0 1 .718-.27.887.887 0 0 1 .939 1.004ZM172.283 60.795v1.288h-.614v-.28a.753.753 0 0 1-.689.315c-.534 0-.849-.294-.849-.684 0-.39.285-.679.974-.679h.499c0-.28-.165-.444-.499-.444a1.098 1.098 0 0 0-.654.21l-.235-.46c.298-.19.646-.285.999-.274.669 0 1.068.32 1.068 1.008Zm-.644.575v-.23h-.449c-.305 0-.405.11-.405.264 0 .155.14.275.37.275a.5.5 0 0 0 .484-.31ZM174.28 59.787v.61h-.149a.559.559 0 0 0-.452.169.542.542 0 0 0-.126.213.542.542 0 0 0-.021.246v1.069h-.659v-2.252h.629v.3a.911.911 0 0 1 .778-.355ZM176.852 61.14h-1.717a.607.607 0 0 0 .649.454.786.786 0 0 0 .569-.22l.344.38a1.318 1.318 0 0 1-2.221-.799 1.148 1.148 0 0 1 .746-1.095c.147-.056.305-.08.462-.073a1.118 1.118 0 0 1 1.173 1.173c.005.05 0 .125-.005.18Zm-1.722-.385h1.118a.57.57 0 0 0-.922-.332.566.566 0 0 0-.196.332Z"/><path fill="#EBEBEB" d="M223.897 120.647H167.22a6.27 6.27 0 0 0-6.27 6.271v.569a6.27 6.27 0 0 0 6.27 6.271h56.677a6.27 6.27 0 0 0 6.271-6.271v-.569a6.271 6.271 0 0 0-6.271-6.271Z"/><path fill="#263238" d="M222.75 126.115h-2.666a.58.58 0 0 0-.58.579v2.666c0 .32.26.579.58.579h2.666a.58.58 0 0 0 .579-.579v-2.666a.58.58 0 0 0-.579-.579Z"/><path fill="#EBEBEB" d="M224.401 124.462h-2.666a.58.58 0 0 0-.579.58v2.666a.58.58 0 0 0 .579.579h2.666a.58.58 0 0 0 .579-.579v-2.666a.58.58 0 0 0-.579-.58Z"/><path fill="#263238" d="M224.402 128.541h-2.666a.837.837 0 0 1-.829-.834v-2.666a.836.836 0 0 1 .829-.829h2.666a.831.831 0 0 1 .829.829v2.666a.817.817 0 0 1-.511.77.828.828 0 0 1-.318.064Zm-2.666-3.829a.336.336 0 0 0-.232.097.342.342 0 0 0-.098.232v2.666c0 .088.035.172.096.235a.338.338 0 0 0 .234.1h2.666a.324.324 0 0 0 .235-.099.33.33 0 0 0 .094-.236v-2.666a.322.322 0 0 0-.096-.233.322.322 0 0 0-.233-.096h-2.666ZM170.691 127.243v1.423h-.719v-1.323c0-.4-.184-.584-.499-.584-.314 0-.594.209-.594.669v1.228h-.734v-3.41h.719v1.198a1.07 1.07 0 0 1 .365-.226c.135-.051.279-.074.424-.068a.997.997 0 0 1 1.038 1.093ZM172.942 128.536a1.03 1.03 0 0 1-.584.155.82.82 0 0 1-.929-.889v-1.024h-.385v-.534h.385v-.604h.709v.604h.619v.554h-.619v.999a.303.303 0 0 0 .012.127c.014.04.036.078.066.109a.273.273 0 0 0 .106.07c.04.016.083.022.125.018a.5.5 0 0 0 .29-.089l.205.504ZM174.895 128.536a1.03 1.03 0 0 1-.584.155.82.82 0 0 1-.929-.889v-1.024h-.384v-.534h.384v-.604h.719v.604h.619v.554h-.619v.999a.303.303 0 0 0 .012.127c.014.04.036.078.066.109a.28.28 0 0 0 .106.07c.04.016.083.022.125.018a.498.498 0 0 0 .295-.089l.19.504ZM178.01 127.413a1.208 1.208 0 0 1-1.238 1.278.966.966 0 0 1-.749-.299v1.158h-.719v-3.38h.684v.289a.97.97 0 0 1 .784-.324 1.198 1.198 0 0 1 .9.367 1.208 1.208 0 0 1 .338.911Zm-.734 0a.63.63 0 0 0-.428-.546.637.637 0 0 0-.672.173.639.639 0 0 0-.111.685.635.635 0 0 0 .582.377.63.63 0 0 0 .469-.203.607.607 0 0 0 .132-.226c.028-.084.037-.172.028-.26ZM178.249 128.421l.24-.499c.262.154.56.237.864.239.329 0 .454-.089.454-.224 0-.41-1.498 0-1.498-.999 0-.474.425-.804 1.148-.804a2.01 2.01 0 0 1 .954.215l-.24.499a1.413 1.413 0 0 0-.714-.184c-.324 0-.464.099-.464.229 0 .425 1.498 0 1.498.999 0 .459-.429.789-1.173.789a2.1 2.1 0 0 1-1.069-.26ZM180.761 126.579a.449.449 0 1 1 .898 0 .449.449 0 0 1-.898 0Zm0 1.658a.449.449 0 1 1 .9-.002.449.449 0 0 1-.9.002ZM183.431 124.746h.639l-1.497 4.349h-.639l1.497-4.349ZM184.905 124.746h.639l-1.523 4.349h-.639l1.523-4.349ZM189.523 126.169l-.899 2.497h-.694l-.559-1.543-.574 1.543h-.679l-.894-2.497h.679l.584 1.683.609-1.683h.609l.595 1.683.604-1.683h.619Z"/><path fill="#263238" d="m193.792 126.169-.904 2.497h-.689l-.559-1.543-.579 1.543h-.694l-.894-2.497h.679l.59 1.683.609-1.683h.609l.589 1.683.604-1.683h.639Z"/><path fill="#263238" d="m198.055 126.169-.898 2.497h-.694l-.56-1.543-.574 1.543h-.694l-.898-2.497h.679l.589 1.683.609-1.683h.609l.589 1.683.604-1.683h.639ZM198.07 128.242a.451.451 0 0 1 .447-.402.452.452 0 0 1 .447.402.452.452 0 0 1-.447.496.446.446 0 0 1-.427-.31.436.436 0 0 1-.02-.186ZM199.279 128.242a.451.451 0 0 1 .447-.402.448.448 0 0 1 .427.588.445.445 0 0 1-.61.271.443.443 0 0 1-.264-.457ZM200.486 128.241c0-.119.047-.233.132-.317a.445.445 0 0 1 .635 0 .449.449 0 1 1-.767.317Z"/><path fill="#E0E0E0" d="M234.547 109.194c0 .075-17.205.135-38.444.135-21.239 0-38.418-.06-38.418-.135 0-.075 17.199-.129 38.418-.129 21.219 0 38.444.059 38.444.129Z"/><path fill="#FF725E" d="M194.796 81.66a6.965 6.965 0 1 0 0-13.93 6.965 6.965 0 0 0 0 13.93ZM217.142 81.66a6.965 6.965 0 1 0 0-13.93 6.965 6.965 0 0 0 0 13.93ZM172.154 81.66a6.965 6.965 0 1 0 0-13.93 6.965 6.965 0 0 0 0 13.93ZM194.91 102.47a6.965 6.965 0 1 0 0-13.93 6.965 6.965 0 0 0 0 13.93Z"/><path fill="#fff" d="m190.991 95.67 1.667.498.999 1.997.998-.798 1.498 1.188a.454.454 0 0 0 .559-.29c.155-.404 1.393-5.277 1.393-5.277s.17-.5-.444-.324l-6.61 2.466a.322.322 0 0 0-.21.21.224.224 0 0 0-.012.204c.015.032.037.06.066.082a.218.218 0 0 0 .096.043Z"/><path fill="#FF725E" d="m193.018 96.004.694 1.637s.115-.998.13-.998l2.896-2.716-3.72 2.077ZM217.142 102.285a6.965 6.965 0 1 0 0-13.93 6.965 6.965 0 0 0 0 13.93ZM172.154 102.285a6.965 6.965 0 1 0 0-13.93 6.965 6.965 0 0 0 0 13.93Z"/><path fill="#fff" d="M168.569 76.947a4.18 4.18 0 0 0 4.354.103 4.185 4.185 0 0 0 2.086-3.823 2.85 2.85 0 0 0 .734-.758 2.987 2.987 0 0 1-.843.23 1.47 1.47 0 0 0 .649-.815 2.93 2.93 0 0 1-.939.355 1.471 1.471 0 0 0-2.496 1.348 4.177 4.177 0 0 1-3.036-1.543 1.499 1.499 0 0 0 .454 1.967 1.46 1.46 0 0 1-.669-.184 1.498 1.498 0 0 0 1.184 1.462c-.217.061-.444.07-.664.025a1.459 1.459 0 0 0 1.373.999 2.959 2.959 0 0 1-2.187.634ZM193.711 78.41h1.498v-3.75h1.044l.11-1.253h-1.154v-.714c0-.294.055-.414.345-.414h.809V70.98h-1.039c-1.113 0-1.613.499-1.613 1.428v.998h-.778v1.268h.778v3.735Z"/><path fill="#fff" fill-rule="evenodd" d="M221.321 74.216a3.894 3.894 0 0 0-7.779-.07v.175a3.821 3.821 0 0 0 .555 1.997l-.699 2.072 2.152-.684a3.872 3.872 0 0 0 5.776-3.36.626.626 0 0 0-.005-.13Zm-3.889 3.345a3.217 3.217 0 0 1-1.798-.54l-1.258.405.405-1.208a3.22 3.22 0 0 1-.619-1.902v-.32a3.268 3.268 0 0 1 5.488-2.072 3.27 3.27 0 0 1 1.027 2.137c.005.085.005.17 0 .255a3.266 3.266 0 0 1-3.245 3.245Z" clip-rule="evenodd"/><path fill="#fff" fill-rule="evenodd" d="M219.214 75.094c-.094-.05-.564-.28-.649-.309-.084-.03-.154-.045-.214.05s-.25.305-.305.37c-.055.064-.11.07-.204 0a2.485 2.485 0 0 1-.769-.47 2.76 2.76 0 0 1-.53-.654c-.055-.095 0-.145.04-.19.04-.045.095-.115.145-.17l.035-.044.06-.11a.18.18 0 0 0 0-.17l-.295-.699c-.074-.19-.154-.16-.214-.16h-.18a.352.352 0 0 0-.255.12 1.054 1.054 0 0 0-.334.789c.001.11.018.22.05.325.073.236.188.457.339.653.396.629.965 1.13 1.638 1.443.998.375.998.25 1.148.235a.964.964 0 0 0 .644-.45.754.754 0 0 0 .055-.449c-.045-.04-.11-.064-.205-.11Z" clip-rule="evenodd"/><path fill="#fff" d="M172.138 92.414h1.388c.218.004.434.042.639.115.149.057.283.146.395.26.114.11.201.245.254.394.078.203.119.417.12.634v2.776a1.786 1.786 0 0 1-.12.634c-.053.15-.14.284-.254.395a1.113 1.113 0 0 1-.395.26 1.995 1.995 0 0 1-.639.114h-2.771a2 2 0 0 1-.639-.115 1.109 1.109 0 0 1-.394-.26 1.04 1.04 0 0 1-.255-.394 1.786 1.786 0 0 1-.12-.634v-2.776c.001-.217.042-.431.12-.634a1.04 1.04 0 0 1 .255-.394 1.11 1.11 0 0 1 .394-.26c.206-.073.421-.111.639-.115h1.383Zm0-.619h-1.413c-.285.005-.567.06-.833.16a1.73 1.73 0 0 0-1.004 1.004 2.583 2.583 0 0 0-.16.833v2.826c.008.285.062.567.16.834a1.73 1.73 0 0 0 1.004 1.004c.266.1.548.154.833.16h2.831c.285-.006.567-.06.834-.16.228-.086.434-.22.604-.395.175-.173.311-.38.399-.609.099-.267.153-.549.16-.834v-2.826a2.583 2.583 0 0 0-.16-.833 1.725 1.725 0 0 0-.399-.61 1.645 1.645 0 0 0-.604-.394 2.497 2.497 0 0 0-.834-.16h-1.418Z"/><path fill="#fff" d="M172.139 93.462a1.762 1.762 0 1 0 0 3.524 1.762 1.762 0 0 0 0-3.524Zm0 2.906a1.142 1.142 0 1 1 0-2.285 1.142 1.142 0 0 1 0 2.285ZM174.401 93.392a.414.414 0 1 1-.829.009.414.414 0 0 1 .829-.008ZM220.513 98.08h-6.74v-5.137h6.74v5.138Zm-6.251-.499h5.757v-4.154h-5.757v4.154Z"/><path fill="#fff" d="m217.242 96.064-3.38-2.68.305-.385 3.065 2.431 2.876-2.426.314.374-3.18 2.686Z"/><path fill="#fff" d="m216.329 94.99-2.491 2.508.348.344 2.49-2.508-.347-.344ZM217.179 95.406l-.377.308 2.174 2.657.376-.308-2.173-2.657Z"/><path fill="#263238" d="M161.36 23.59a.498.498 0 0 1-.315-.11l-2.951-2.42a.507.507 0 0 1-.184-.38.498.498 0 0 1 .174-.385l2.951-2.54a.505.505 0 0 1 .551-.066.51.51 0 0 1 .248.29.51.51 0 0 1-.029.38.502.502 0 0 1-.121.154l-2.496 2.152 2.496 2.042a.5.5 0 0 1-.324.883Z"/><path fill="#455A64" d="M118.694 142.442c-6.281 7.319-6.945 15.228-9.451 22.632-4.089 12.092-6.301 24.414-3.994 36.97 5.147 2.532 11.189 0 16.885-.689 10.11-1.203 20.096 3.705 30.261 3.191 2.102-.11 4.323-.5 5.881-1.928 2.496-2.261 2.372-6.096 2.531-9.451.699-15.422 10.745-28.747 14.804-43.63.234-.859.429-1.843-.06-2.587-.49-.744-1.338-.918-2.142-1.078-8.513-1.693-17.29-.909-25.962-.609-8.238.284-16.75.065-24.364-2.996a5.541 5.541 0 0 0-3.275-.309c-.41.05-.797.219-1.114.484Z"/><path fill="#263238" d="M128.086 164.204c.055-.091.116-.178.185-.259l.559-.719c.244-.315.549-.689.933-1.104.385-.414.799-.903 1.314-1.387l.793-.779c.28-.27.595-.525.904-.804.614-.564 1.323-1.104 2.062-1.683a36.277 36.277 0 0 1 10.819-5.566c.904-.265 1.753-.535 2.571-.709.405-.09.794-.195 1.174-.265l1.098-.195c.694-.14 1.333-.194 1.892-.264.559-.07 1.044-.105 1.438-.125l.909-.04c.106-.012.213-.012.319 0a2.208 2.208 0 0 1-.314.05l-.904.09c-.394.03-.874.075-1.428.164-.554.09-1.193.15-1.882.3l-1.088.21c-.375.075-.759.184-1.164.279-.809.18-1.652.455-2.546.724a41.25 41.25 0 0 0-5.587 2.337 40.743 40.743 0 0 0-5.142 3.2c-.739.569-1.448 1.098-2.067 1.653-.31.269-.624.499-.904.783l-.804.764c-.524.475-.943.954-1.333 1.358-.389.405-.709.764-.963 1.069l-.599.684a1.392 1.392 0 0 1-.245.234Z"/><path fill="#FF725E" d="M132.554 125.072s-13.689-16.336-18.897-16.336c0 0-3.29 5.797-3.4 8.952-.11 3.155 10.535 17.973 10.535 17.973l11.762-10.589Z"/><path fill="#FF725E" d="m99.579 108.566 14.079.145 4.349 21.688s-2.337 22.607-4.079 28.378c-1.743 5.772-5.717 15.223-5.717 15.223l-34.694-7.674-1.038-25.048-4.25-23.515 14.824-5.862 16.526-3.335Z"/><path fill="#FF725E" d="M58.379 138.552c0-.874 4.848-18.717 9.855-20.789l3.87 5.991 1.767 16.241-15.492-1.443Z"/><path fill="#263238" d="M117.841 119.261c.022.187.022.377 0 .564 0 .419-.035.929-.055 1.533-.05 1.298-.09 3.09-.07 5.067.02 1.977.115 3.765.195 5.058.04.604.07 1.118.095 1.538.022.187.022.376 0 .564a2.336 2.336 0 0 1-.11-.554c-.05-.36-.115-.884-.175-1.533a60.297 60.297 0 0 1-.274-5.073c-.025-1.987.05-3.779.145-5.077.049-.644.094-1.169.139-1.533.013-.189.05-.375.11-.554ZM72.318 124.433a2.88 2.88 0 0 1-.055.639c-.05.395-.12.969-.195 1.683a43.643 43.643 0 0 0 .245 11.139c.105.709.2 1.278.27 1.672.051.202.078.41.08.619a3.137 3.137 0 0 1-.18-.599c-.1-.389-.22-.954-.35-1.662a36.077 36.077 0 0 1-.245-11.194c.095-.709.195-1.283.275-1.678.027-.211.08-.419.155-.619ZM102.389 164.879a3.75 3.75 0 0 1-.499-.54l-1.274-1.497a355.15 355.15 0 0 0-4.253-4.993 229.658 229.658 0 0 0-4.374-4.873l-1.338-1.468a3.656 3.656 0 0 1-.464-.559c.196.148.377.315.539.499.335.325.814.809 1.398 1.408a137.228 137.228 0 0 1 4.433 4.833c1.688 1.927 3.16 3.72 4.199 5.033.5.659.934 1.198 1.213 1.577.158.18.298.374.42.58ZM105.329 86.809a21.771 21.771 0 0 1-6.945 16.435c-1.038-2.995-2.073-5.99-3.105-8.986"/><path fill="#263238" d="M81.919 68.915c2.666-1.458 5.886-1.668 8.867-1.074 2.98.595 5.751 1.948 8.382 3.47a13.565 13.565 0 0 1 3.994 3.126c1.933 2.431 3.85 6.43 4.035 9.536.149 2.496-.809 8.797-1.873 11.078-.973 2.092-5.532 3.685-7.783 4.204l-20.625-24.01a10.43 10.43 0 0 1 5.003-6.33Z"/><path fill="#263238" d="m78.359 72.15 4.953-.884c-2.706 6.44-3.44 21.174-4.993 27.989-1.822-2.646-6.061-10.71-5.837-13.915.225-3.205 0-13.734 5.877-13.19Z"/><path fill="#FFBE9D" d="M75.534 82.635c.32-4.943 3.61-10.984 8.532-10.485l11.398 2.906a8.488 8.488 0 0 1 6.361 7.784c0 .19.03-.04.03.1l-2.546 29.511-8.573 17.015-7.554-17.809v-4.309c0 .015-6.31-1.063-7.603-9.306-.625-4.099-.405-9.915-.045-15.407Z"/><path fill="#263238" d="M78.01 89.355a1.053 1.053 0 0 0 .999 1.068.999.999 0 0 0 1.093-.949 1.053 1.053 0 0 0-.998-1.068.999.999 0 0 0-1.094.949ZM76.757 85.885c.134.135.933-.455 2.071-.45 1.139.005 1.998.575 2.092.44.095-.135-.07-.315-.434-.58a2.89 2.89 0 0 0-1.672-.499 2.736 2.736 0 0 0-1.648.53c-.345.244-.46.494-.41.559ZM88.445 89.355a1.053 1.053 0 0 0 .998 1.068.997.997 0 0 0 1.089-.948 1.053 1.053 0 0 0-.999-1.069.999.999 0 0 0-1.088.949ZM87.57 85.885c.13.134.934-.455 2.073-.45 1.138.005 1.967.575 2.092.44.124-.135-.07-.315-.435-.58a2.92 2.92 0 0 0-1.677-.499 2.746 2.746 0 0 0-1.648.53c-.35.244-.47.494-.404.559ZM84.016 94.816c-.6-.19-1.22-.303-1.848-.34-.29-.03-.564-.089-.614-.284-.023-.3.045-.602.195-.863l.864-2.207c1.198-3.146 2.072-5.737 1.942-5.782-.13-.045-1.203 2.467-2.402 5.612l-.828 2.222c-.183.35-.237.752-.155 1.138a.728.728 0 0 0 .5.424c.161.048.33.072.498.07.613.08 1.234.083 1.848.01Z"/><path fill="#EB996E" d="M94.131 104.417s-2.68 5.657-10.929 4.868v-1.937a20.808 20.808 0 0 0 10.93-2.931Z"/><path fill="#263238" d="M87.924 81.771c.115.31 1.249.17 2.582.33 1.333.16 2.416.529 2.59.254.08-.135-.104-.424-.538-.724a4.492 4.492 0 0 0-3.945-.444c-.489.195-.734.45-.689.584ZM77.141 82.405c.2.26.999 0 1.922 0 .924 0 1.743.18 1.927-.09.08-.135-.044-.394-.394-.64a2.631 2.631 0 0 0-1.563-.424 2.666 2.666 0 0 0-1.537.5c-.335.26-.445.524-.355.654Z"/><path fill="#263238" d="M77.755 75.146a3.635 3.635 0 0 1 3.2-2.052c1.349 0 2.669.384 3.805 1.108 4.908 2.836 7.43 9.69 12.277 12.627 1.193.719 2.746.06 3.76.998 1.013.939 1.672 2.496 1.113 3.765a11.467 11.467 0 0 0 1.682-2.846 3.898 3.898 0 0 0-.134-3.215c-.42-.724-1.164-1.284-1.363-2.097-.18-.714.1-1.463.07-2.202a4.779 4.779 0 0 0-.754-2.102c-1.898-3.36-4.494-6.4-7.879-8.288a13.979 13.979 0 0 0-7.234-1.872 10.674 10.674 0 0 0-6.88 2.73c-1.083 1-2.227 2.058-1.663 3.43"/><path fill="#FFBE9D" d="M100.721 88.846c.085-.235 4.384-1.788 4.444 2.78.055 4.439-4.429 3.565-4.434 3.44-.005-.124-.01-6.22-.01-6.22Z"/><path fill="#EB996E" d="M102.06 93.369s.075.055.209.115a.78.78 0 0 0 .58 0c.464-.175.853-.924.868-1.723a2.628 2.628 0 0 0-.229-1.108.897.897 0 0 0-.584-.59.395.395 0 0 0-.455.22c-.06.125-.03.21-.055.22-.025.01-.095-.075-.06-.26a.504.504 0 0 1 .17-.28.6.6 0 0 1 .424-.114 1.104 1.104 0 0 1 .819.68c.191.383.287.808.28 1.237 0 .894-.499 1.733-1.114 1.927a.84.84 0 0 1-.708-.11c-.135-.104-.16-.204-.145-.214Z"/><path fill="#455A64" d="M102.458 86.564a1.928 1.928 0 0 1-.264-.15c-.17-.105-.435-.25-.744-.474a14.74 14.74 0 0 1-2.397-2.182 41.296 41.296 0 0 1-2.93-3.805 34.941 34.941 0 0 0-3.665-4.563 14.245 14.245 0 0 0-2.366-1.867c-.8-.489-1.657-.878-2.552-1.158a12.722 12.722 0 0 0-4.703-.58 12.083 12.083 0 0 0-3.15.62c-.365.11-.634.234-.824.304-.093.043-.19.078-.29.105a1.66 1.66 0 0 1 .275-.14 7.62 7.62 0 0 1 .814-.344 11.481 11.481 0 0 1 3.165-.684c1.61-.13 3.229.052 4.768.539.912.281 1.785.674 2.601 1.168a13.978 13.978 0 0 1 2.402 1.892 33.824 33.824 0 0 1 3.674 4.599 45.973 45.973 0 0 0 2.886 3.819 16.447 16.447 0 0 0 2.337 2.217c.304.23.559.38.719.499.087.054.169.115.244.185Z"/><path fill="#263238" d="M101.345 87.822c.07 1.208.125 2.496-.434 3.57-.559 1.073-1.972 1.807-3.03 1.208-.86-.5-1.114-1.593-1.264-2.576-.42-2.826-.61-5.682-1.058-8.488l5.786 6.286Z"/><path fill="#EB996E" d="M86.811 96.974a2.252 2.252 0 0 1 .345 1.997 2.227 2.227 0 0 1-1.443 1.428c-.269.092-.56.092-.829 0a1.83 1.83 0 0 1-.879-1.149c-.154-.379-.31-.763-.459-1.148a.5.5 0 0 1-.045-.4.5.5 0 0 1 .375-.219l2.845-.689"/><path fill="#263238" d="M84.944 100.283a2.55 2.55 0 0 0 1.298-.174 2 2 0 0 0 1.134-.919c.143-.271.204-.578.174-.884a2.495 2.495 0 0 0-.23-.908 2.306 2.306 0 0 0-.534-.744l-.075-.07-.094.035c-1.888.664-3.36.998-3.345 1.083.015.085 1.532-.12 3.454-.769l-.17-.035c.19.184.343.4.455.64a1.834 1.834 0 0 1 .085 1.497c-.208.38-.541.677-.944.839-.709.31-1.218.344-1.208.409Z"/><path fill="#455A64" d="M78.864 73.014c0 .025.394-.075 1.103-.095a7.606 7.606 0 0 1 2.936.534c.645.251 1.263.57 1.842.948.662.446 1.296.93 1.898 1.453a22.72 22.72 0 0 1 3.72 3.995c.563.793 1.063 1.607 1.602 2.361a11.532 11.532 0 0 0 1.782 1.997 19.587 19.587 0 0 0 3.75 2.497c1.133.604 2.087 1.023 2.741 1.313l.758.324c.086.043.177.074.27.095a1.29 1.29 0 0 0-.25-.14l-.738-.37c-.645-.314-1.578-.758-2.697-1.377a20.564 20.564 0 0 1-3.684-2.527 11.318 11.318 0 0 1-1.733-1.997c-.529-.744-1.028-1.557-1.597-2.361a22.469 22.469 0 0 0-3.775-4.034 19.74 19.74 0 0 0-1.932-1.453 9.928 9.928 0 0 0-1.892-.939 7.324 7.324 0 0 0-2.996-.464 5.17 5.17 0 0 0-.818.11c-.1.034-.198.078-.29.13ZM101.466 85.076c.12.105.252.196.394.27l1.123.658.38.215c.151.092.322.146.499.16a.446.446 0 0 0 .3-.07.382.382 0 0 0 .169-.29.998.998 0 0 0-.209-.564l-1.308-2.087-.175.16c.43.32.914.562 1.428.714a4.46 4.46 0 0 0 1.587.185c.138 0 .274-.022.405-.065a.558.558 0 0 0 .344-.3.5.5 0 0 0-.075-.449 2.054 2.054 0 0 0-.254-.28 9.394 9.394 0 0 1-1.498-1.907 16.158 16.158 0 0 1-.959-2.042c.021.204.068.403.14.594.169.535.393 1.05.669 1.538a8.925 8.925 0 0 0 1.498 1.997c.165.155.33.335.265.5-.065.164-.305.21-.54.214a4.491 4.491 0 0 1-2.855-.854l-.53-.39.355.555 1.333 2.072a.822.822 0 0 1 .185.434c0 .125-.11.2-.255.19a2.276 2.276 0 0 1-.799-.33l-1.158-.599a2.204 2.204 0 0 0-.459-.23Z"/><g opacity=".3"><path fill="#000" d="M73.502 150.181c1.244-4.134 3.545-8.128 7.205-10.42 2.995-1.872 6.615-2.451 10.14-2.581 6.38-.23 12.741.879 18.907 2.536 9.691 2.601 19.192 6.675 26.666 13.37l1.807 1.309c-5.916 1.712-12.272.429-18.178-1.334-5.906-1.762-11.768-4.019-17.929-4.258-3.68-.145-7.489.429-10.984-.734-1.417-.475-2.825-1.238-4.313-1.069-1.773.195-3.11 1.643-4.274 2.996L71.4 162.942c.55-4.284.864-8.627 2.102-12.761Z"/></g><path fill="#FFBE9D" d="M131.581 125.926s12.522 14.154 13.48 19.167c.959 5.013 0 7.184-4.358 8.822-4.359 1.638-33.221-9.152-33.221-9.152l4.902-8.387 15.533 3.05-5.727-5.052 5.202-4.673 4.189-3.775Z"/><path fill="#263238" d="m97.91 120.03 1.469 17.913a1.116 1.116 0 0 1-.999 1.203l-11.049 1.179a1.122 1.122 0 0 1-1.233-.999l-2.162-18.712a1.127 1.127 0 0 1 .63-1.144c.14-.067.293-.104.449-.109l11.748-.375a1.121 1.121 0 0 1 1.148 1.044Z"/><path fill="#FFBE9D" d="M92.364 127.988c.345.03 7.844 1.363 7.844 1.363l8.932 6.266 3.265.759-1.962 9.166-2.941-.764a35.819 35.819 0 0 1-4.598-.099c-2.287-.215-9.526-.769-9.526-.769l-3.735-2.072s-1.198-1.962-1.198-2.497a.845.845 0 0 1 1.293-.788c.764.434 5.991.544 7.3 0 0 0-7.624-.555-8.603-1.803-.979-1.248-.654-2.232.544-2.232s5.552.654 6.86.545c1.308-.11 2.94-.105 3.27-.759.33-.654-.654-1.198-.654-1.198l-1.418-1.089s-5.556-.998-5.881-2.182a1.397 1.397 0 0 1 1.208-1.847Z"/><path fill="#EB996E" d="M128.086 139.551a1.12 1.12 0 0 1 .359-.125 6.77 6.77 0 0 1 .999-.18 9.997 9.997 0 0 1 3.37.185 9.675 9.675 0 0 1 3.115 1.298c.289.183.563.388.819.614.185.16.275.255.265.265-.01.01-.445-.295-1.178-.724a11.063 11.063 0 0 0-3.076-1.198 11.62 11.62 0 0 0-3.295-.255c-.844.045-1.368.15-1.378.12Z"/><path fill="#FFBE9D" d="M89.817 127.603s-6.37 1.034-6.774 1.438c-.405.405-8.423 10.23-8.423 10.23l4.094 8.043 7.174-3.884c.73-.326 1.494-.574 2.277-.739 0 0 7.244-1.138 7.714-1.997.469-.859.2-1.073-.34-1.208s-4.868.359-5.831.539c-.958.093-1.923.093-2.881 0 0 0 2.996-.704 3.684-.939.69-.234 7.42-1.747 7.31-2.95-.11-1.203-.949-1.648-5.163-.499a30.149 30.149 0 0 1-7.11 1.138l9.322-3.25s3.755-1.209 2.546-2.282c-1.208-1.073-9.251 1.143-9.251 1.143l-3.555 1.338.999-2.141s5.052-1.498 5.701-1.998c.804-.624.914-1.203.31-1.722-.604-.519-1.803-.26-1.803-.26ZM60.51 138.817l11.708.999-.114 3.21 2.496-3.774 4.094 8.043s-1.498 4.783-2.282 7.424c-2.137 7.074-5.612 14.978-9.885 14.593-5.128-.499-8.872-6.555-8.787-10.484.095-3.56 2.77-20.011 2.77-20.011Z"/><path fill="#EB996E" d="M74.62 139.271s.07-.1.22-.289l.649-.819 2.53-3.136 4.025-4.927.604-.724c.1-.125.205-.25.32-.375.142-.104.303-.181.474-.224.639-.19 1.308-.33 1.997-.475 1.373-.279 2.83-.539 4.364-.794a3.363 3.363 0 0 1 1.183-.054c.208.027.409.096.589.204.183.117.335.277.444.465a.807.807 0 0 1 .065.664 1.498 1.498 0 0 1-.35.549 2.282 2.282 0 0 1-.498.409c-.195.1-.385.185-.585.265-1.572.614-3.25 1.128-4.992 1.662l.075-.065-.999 2.147-.15-.159 3.555-1.344a60.65 60.65 0 0 1 4.713-1.078 23.568 23.568 0 0 1 2.496-.334 7.235 7.235 0 0 1 1.283 0c.227.015.45.068.66.154a.842.842 0 0 1 .499.535.766.766 0 0 1-.215.699c-.148.164-.315.31-.5.434-.37.237-.76.441-1.167.609-.81.344-1.648.594-2.497.894-1.657.584-3.345 1.168-5.047 1.762l-2.741.959-.045-.255a31.197 31.197 0 0 0 6.585-.998 28.3 28.3 0 0 1 3.19-.714 4.74 4.74 0 0 1 1.638 0c.29.055.55.213.734.444.16.245.245.531.245.824a.648.648 0 0 1-.205.419 1.85 1.85 0 0 1-.32.27 5.248 5.248 0 0 1-.694.384c-.47.217-.952.408-1.442.574-.964.335-1.933.614-2.886.869l-1.418.379c-.465.12-.929.285-1.393.395-.924.235-1.838.454-2.731.664v-.225a12 12 0 0 0 3.145-.04 73.4 73.4 0 0 1 2.996-.359c.5-.045.998-.09 1.463-.12h.724c.124-.012.25-.012.374 0 .123.027.242.069.355.125a.496.496 0 0 1 .274.314.75.75 0 0 1 0 .395 2.227 2.227 0 0 1-.125.334l-.08.16a.495.495 0 0 1-.13.155c-.384.258-.81.448-1.257.564-1.589.448-3.2.808-4.828 1.078l-1.104.185c-.353.05-.703.122-1.048.215a7.73 7.73 0 0 0-1.858.679l-5.187 2.776-1.373.724-.354.179-.12.055.11-.07.35-.199 1.352-.754 5.158-2.831c1.133-.629 2.55-.864 4.044-1.118a45.364 45.364 0 0 0 4.803-1.099c.42-.11.82-.287 1.183-.524a.458.458 0 0 0 .09-.105l.075-.15c.046-.098.085-.2.114-.304.06-.215.025-.4-.164-.499a1.633 1.633 0 0 0-.31-.11 2.265 2.265 0 0 0-.33 0c-.234 0-.474 0-.708.03-.5.03-.964.075-1.458.124-.999.1-1.997.215-2.996.365a11.996 11.996 0 0 1-3.195.05.112.112 0 0 1-.078-.032.112.112 0 0 1-.032-.078c0-.029.012-.057.032-.078a.112.112 0 0 1 .078-.032c.894-.214 1.807-.429 2.726-.669.47-.11.913-.269 1.388-.399l1.418-.38a41.777 41.777 0 0 0 2.87-.868c.483-.165.956-.355 1.418-.57.23-.102.45-.224.66-.364.19-.135.414-.32.414-.499 0-.236-.07-.467-.2-.664a.966.966 0 0 0-.589-.35 4.441 4.441 0 0 0-1.543 0c-1.066.18-2.12.418-3.16.714a31.276 31.276 0 0 1-6.65.999.122.122 0 0 1-.122-.075.12.12 0 0 1-.008-.05.13.13 0 0 1 .085-.125l2.74-.959 5.053-1.762c.824-.3 1.668-.554 2.457-.884.39-.163.767-.36 1.123-.589.174-.108.331-.239.47-.389a.528.528 0 0 0 .164-.465c-.105-.339-.524-.469-.928-.499a7.314 7.314 0 0 0-1.239 0c-.824.064-1.644.175-2.456.33-1.613.294-3.18.659-4.693 1.063l-3.555 1.338a.114.114 0 0 1-.09-.001.119.119 0 0 1-.065-.064.154.154 0 0 1 0-.095c.35-.743.7-1.497.999-2.141a.123.123 0 0 1 .07-.065c1.732-.5 3.42-1.034 4.992-1.638.191-.075.378-.16.56-.255.167-.099.32-.222.454-.364a.808.808 0 0 0 .26-.969 1.172 1.172 0 0 0-.884-.569 3.173 3.173 0 0 0-1.104.05c-1.527.25-2.995.499-4.358.774-.684.14-1.353.28-1.997.459a1.43 1.43 0 0 0-.41.185l-.31.36-.608.719-4.06 4.897-2.57 3.101-.675.804c-.21.189-.294.279-.294.279Z"/><path fill="#FFBE9D" d="m54.28 192.343-20.091 8.368 7.898 9.157 17.17-3.355-4.978-14.17Z"/><path fill="#263238" d="M107.96 174.784s.999 23.091-.998 27.155c-1.997 4.064-22.507 4.648-22.507 4.648l-32.278 2.322-4.084-15.033s23.271-11.403 25.463-12.711c2.192-1.308 7.404-3.62 7.404-3.62l7.689-10.335 19.311 7.574Z"/><path fill="#455A64" d="M70.525 207.146c.08-.04.164-.072.25-.095l.739-.234 2.746-.819 9.241-2.661h.035a13.104 13.104 0 0 0 1.558-.13 13.15 13.15 0 0 0 1.498-.29c.499-.149.963-.269 1.413-.459a13.855 13.855 0 0 0 2.496-1.248 14.722 14.722 0 0 0 3.555-3.14 14.278 14.278 0 0 0 1.722-2.711c.17-.34.27-.62.36-.799.035-.096.08-.188.134-.275a1.31 1.31 0 0 1-.084.295c-.075.184-.16.499-.315.824a13.194 13.194 0 0 1-1.672 2.78 14.534 14.534 0 0 1-3.57 3.231c-.805.512-1.66.942-2.551 1.283-.455.195-.949.319-1.438.474-.504.125-1.014.223-1.528.295-.526.074-1.056.117-1.588.129h.03l-9.261 2.582-2.766.739-.754.189a1.007 1.007 0 0 1-.25.04Z"/><path fill="#263238" d="m72.852 181.844-2.327-32.543s1.498-24.179-12.147-22.886c-13.645 1.293-12.702 22.652-12.702 22.652s.824 29.252 1.653 33.5c.829 4.249 1.158 8.952 3.884 10.725l12.392-1.528 9.247-9.92Z"/><path fill="#263238" d="m65.952 132.786 2.996 8.053-2.996 30.285s-17.57.944-17.39.47c.18-.475-2.655-15.213-2.655-15.213s-.465-19.471 4.842-23.006c5.308-3.535 15.203-.589 15.203-.589Z"/><path fill="#FFBE9D" d="m65.273 171.159-.694 14.479-12.696 6.336-2.437-20.256 15.827-.559Z"/><path fill="#263238" d="M88.64 167.21 74 162.367l-7.453 6.965 4.738 14.194 11.643-4.623 5.711-11.693Z"/><path fill="#455A64" d="M48.073 193.876a.994.994 0 0 1 .16-.095l.5-.254 1.872-.964 6.9-3.495 10.244-5.147 6.056-3.031 3.206-1.598 1.637-.818.83-.415a6.34 6.34 0 0 1 .853-.384 12.537 12.537 0 0 1 3.624-.814 14.66 14.66 0 0 1 3.6.15 18.085 18.085 0 0 1 6.356 2.351 20.238 20.238 0 0 1 4.718 3.925 27.415 27.415 0 0 1 3.135 4.333 40.27 40.27 0 0 1 3.211 7.04c.304.859.499 1.533.659 1.997.065.22.114.394.154.524l.045.18a.78.78 0 0 1-.07-.175l-.179-.499a96.899 96.899 0 0 0-.704-1.997 41.873 41.873 0 0 0-3.27-6.99 28.018 28.018 0 0 0-3.14-4.284 20.123 20.123 0 0 0-4.679-3.864 18.042 18.042 0 0 0-6.276-2.307 14.419 14.419 0 0 0-3.54-.139c-1.215.085-2.41.354-3.544.798-.291.103-.573.228-.844.375l-.829.414-1.637.819-3.206 1.593-6.06 3.02-10.27 5.093-6.94 3.415-1.888.913-.499.235-.185.095ZM76.466 178.284a13.82 13.82 0 0 0-.2-2.192 17.18 17.18 0 0 0-1.996-4.902 30.477 30.477 0 0 1-2.397-4.803 9.762 9.762 0 0 1-.42-1.583 2.302 2.302 0 0 1-.054-.594c.05 0 .15.839.644 2.112a37.741 37.741 0 0 0 2.451 4.743 15.716 15.716 0 0 1 1.997 4.993c.094.54.126 1.089.095 1.637a2.12 2.12 0 0 1-.12.589ZM45.907 156.381a.556.556 0 0 1 .045.155l.1.469c.09.43.214 1.039.369 1.808.315 1.572.759 3.849 1.278 6.665.26 1.408.544 2.95.809 4.618.065.419.13.839.17 1.283.005.062.005.123 0 .185v.06-.085h.03c.102.019.205.033.31.04h.658c.894 0 1.817 0 2.761-.03 3.785-.105 7.944-.3 12.307-.499l1.223-.065-.12.114c.85-8.417 1.618-15.976 2.172-21.468.285-2.716.5-4.918.68-6.455.084-.749.154-1.334.199-1.748l.06-.454a.523.523 0 0 1 0-.155.618.618 0 0 1 0 .155c0 .12 0 .269-.035.459l-.15 1.752c-.145 1.543-.35 3.745-.599 6.466-.534 5.492-1.273 13.046-2.097 21.468v.115h-.11l-1.223.065c-4.368.22-8.527.41-12.317.499-.944 0-1.867.035-2.77 0l-.675-.03a3.07 3.07 0 0 1-.344-.044c-.04 0-.055 0-.12-.055s0 0-.045-.06a.18.18 0 0 1 0-.07c0-.03.08 0 0 0v-.16c-.03-.424-.1-.854-.16-1.268-.254-1.663-.529-3.205-.774-4.618-.499-2.806-.908-5.083-1.198-6.675-.135-.774-.245-1.383-.32-1.818-.03-.195-.054-.354-.074-.499a.553.553 0 0 1-.04-.12Z"/><path fill="#455A64" d="M62.887 130.4c.142.097.27.215.38.349.33.332.642.682.933 1.048a20.177 20.177 0 0 1 2.496 3.915 20.4 20.4 0 0 1 1.498 4.378c.103.459.183.922.24 1.388.031.165.041.332.03.5-.045 0-.16-.719-.45-1.858a23.136 23.136 0 0 0-3.954-8.223c-.714-.928-1.208-1.468-1.173-1.497ZM77.146 177.605a1.94 1.94 0 0 1 .075-.5c.064-.309.174-.753.334-1.293a26.809 26.809 0 0 1 3.83-7.913c.329-.459.609-.824.808-1.063.2-.24.325-.375.34-.36.015.015-.38.584-.999 1.523a33.887 33.887 0 0 0-2.162 3.809 35.13 35.13 0 0 0-1.647 4.059c-.355 1.074-.54 1.748-.58 1.738ZM99.093 175.388c.04 0 .225.499.61 1.298a15.122 15.122 0 0 0 4.283 5.302c.694.544 1.163.834 1.138.874a1.285 1.285 0 0 1-.354-.165 8.454 8.454 0 0 1-.894-.564 12.804 12.804 0 0 1-4.339-5.387 9.188 9.188 0 0 1-.364-.999 1.301 1.301 0 0 1-.08-.359ZM34.688 210.242c-7.554-.225-9.456.055-17.005-.17-1.847-.06-8.547.315-10.11-.664-1.423-.898-3.24-1.722-3.64-3.355-.679-2.751 0-5.896 2.527-7.678a6.127 6.127 0 0 1 2.945-1.074c4.449-.449 8.593 2.716 13.026 1.658 1.198-.285 2.267-.999 3.46-1.293a7.678 7.678 0 0 1 5.233.734c1.617.793 1.997.923 1.997.923l7.868-2.856 2.766 13.815-9.067-.04Z"/><path fill="#455A64" d="m41.059 193.192-4.144 1.453a1.306 1.306 0 0 0-.839 1.537l3.54 14.809a1.31 1.31 0 0 0 1.443.998l4.244-.544a1.312 1.312 0 0 0 1.114-1.051c.034-.179.03-.364-.01-.542L42.78 194.16a1.317 1.317 0 0 0-1.172-1.038 1.32 1.32 0 0 0-.55.07Z"/><path fill="#263238" d="M39.72 211.57a13.974 13.974 0 0 1-.818-2.217 69.984 69.984 0 0 1-1.553-5.492c-.52-2.177-.884-4.149-1.083-5.597a30.456 30.456 0 0 1-.205-1.712 2.2 2.2 0 0 1 0-.634c.216.757.383 1.528.5 2.306a108.68 108.68 0 0 0 1.178 5.552c.519 2.157 1.058 4.089 1.447 5.492.23.755.408 1.524.535 2.302ZM36.815 198.065c-.07-.055 1.179-1.143 3.126-1.498 1.947-.354 3.495.225 3.445.3-.05.074-1.538-.29-3.38.055-1.843.344-3.126 1.238-3.19 1.143Z"/><path fill="#263238" d="M37.434 203.667c-.03-.095 1.498-.679 3.495-1.179 1.997-.499 3.605-.729 3.625-.634.02.095-1.578.5-3.54.999s-3.55.909-3.58.814ZM39.456 209.448c0-.11 1.628.045 3.395-.754 1.767-.799 2.761-2.072 2.846-1.997.085.075-.16.385-.61.864a6.598 6.598 0 0 1-4.583 2.022 2.218 2.218 0 0 1-1.048-.135Z"/><path fill="#455A64" d="m65.269 181.03-.694 4.613-12.691 6.331-1.578-9.616 14.963-1.328Z"/><path fill="#455A64" d="m48.354 178.613.794 4.394a1.34 1.34 0 0 0 1.417 1.093l15.478-1.198a1.333 1.333 0 0 0 1.228-1.298l.11-4.344a1.328 1.328 0 0 0-1.423-1.363l-16.366 1.149a1.314 1.314 0 0 0-.975.503 1.324 1.324 0 0 0-.263 1.064Z"/><path fill="#263238" d="M66.622 182.887c-.772.219-1.56.376-2.357.47a80.205 80.205 0 0 1-5.761.689 59.378 59.378 0 0 1-5.797.199c-.743 0-1.343-.04-1.757-.069a2.261 2.261 0 0 1-.644-.085 19.98 19.98 0 0 1 2.396-.105c1.498-.04 3.525-.125 5.777-.305 2.252-.179 4.279-.409 5.751-.579.791-.13 1.59-.202 2.392-.215ZM52.572 183.651c-.065.06-.959-1.368-.999-3.38-.04-2.012.78-3.495.85-3.42.07.075-.54 1.498-.5 3.41.04 1.912.759 3.345.649 3.39Z"/><path fill="#263238" d="M58.308 183.926c-.1 0-.444-1.628-.634-3.695s-.154-3.744-.055-3.744c.1 0 .23 1.662.42 3.714.19 2.052.37 3.71.27 3.725ZM64.445 182.812c-.114 0 .305-1.627-.22-3.534-.524-1.908-1.647-3.111-1.552-3.181.095-.07.36.22.769.749a6.71 6.71 0 0 1 1.303 4.933c-.017.363-.12.718-.3 1.033Z"/></svg>